<?xml version="1.0" standalone="no"?>
<!DOCTYPE svg PUBLIC "-//W3C//DTD SVG 20010904//EN"
 "http://www.w3.org/TR/2001/REC-SVG-20010904/DTD/svg10.dtd">
<svg version="1.0" xmlns="http://www.w3.org/2000/svg"
 width="500.000000pt" height="500.000000pt" viewBox="0 0 500.000000 500.000000"
 preserveAspectRatio="xMidYMid meet">

<g transform="translate(0.000000,500.000000) scale(0.100000,-0.100000)"
fill="#000000" stroke="none">
<path d="M670 3480 c0 -97 3 -130 13 -131 6 0 64 0 128 1 63 1 127 -3 141 -9
15 -5 102 -70 194 -143 162 -129 166 -133 133 -136 -140 -10 -243 -55 -331
-144 -143 -144 -202 -411 -135 -608 14 -41 38 -97 53 -125 43 -77 148 -176
229 -216 67 -32 75 -34 180 -34 105 0 114 2 180 34 138 68 260 230 295 392 20
90 9 259 -23 348 -58 165 -167 278 -320 330 -42 15 -101 55 -231 158 -97 76
-175 141 -176 146 0 4 243 6 541 5 l541 -3 30 -35 c17 -19 81 -87 142 -150
l111 -115 -62 -3 c-47 -2 -63 -7 -63 -17 0 -12 16 -15 75 -15 l74 0 3 -432 c3
-419 4 -435 26 -492 32 -85 30 -165 -4 -205 -23 -27 -32 -31 -78 -31 -32 0
-60 6 -72 15 -19 15 -19 16 0 28 60 39 76 59 76 97 0 75 -72 120 -139 86 -70
-36 -80 -131 -20 -192 47 -49 104 -68 186 -62 78 6 136 31 188 83 73 74 69 44
75 600 l5 500 63 3 c46 2 62 7 62 17 0 13 -30 15 -182 15 l-183 0 -130 137
c-71 75 -136 144 -143 154 -12 18 7 18 476 19 269 0 497 -3 507 -6 15 -6 205
-284 205 -299 0 -3 -34 -5 -75 -5 -60 0 -75 -3 -75 -15 0 -12 13 -15 60 -15
l60 0 0 -515 0 -515 -60 0 c-47 0 -60 -3 -60 -15 0 -13 57 -15 450 -15 l450 0
0 185 c0 152 -3 185 -14 185 -10 0 -15 -20 -17 -78 -5 -101 -36 -164 -102
-209 -62 -41 -122 -53 -277 -53 l-130 0 0 515 0 515 70 0 c56 0 70 3 70 15 0
13 -24 15 -160 15 l-161 0 -94 145 c-52 80 -95 150 -95 155 0 6 241 10 658 10
l657 0 3 130 3 130 -1901 0 -1900 0 0 -130z m218 48 c17 -17 15 -73 -2 -87
-25 -21 -69 -9 -84 22 -12 24 -11 31 2 53 18 26 63 33 84 12z m196 3 c3 -4 -5
-6 -18 -4 -36 7 -41 -14 -7 -32 38 -19 46 -32 31 -50 -14 -17 -56 -20 -65 -6
-3 6 7 9 21 8 35 -3 43 20 11 32 -30 12 -41 27 -33 46 6 16 51 21 60 6z m146
-46 c0 -30 -3 -55 -7 -55 -7 0 -8 24 -4 98 1 6 3 12 6 12 3 0 5 -25 5 -55z
m190 9 c25 -58 25 -69 -1 -50 -21 15 -48 11 -61 -8 -4 -6 -9 -8 -12 -5 -8 7
36 109 46 109 5 0 18 -21 28 -46z m210 9 c0 20 5 37 10 37 6 0 10 -25 10 -55
0 -30 -4 -55 -9 -55 -4 0 -21 19 -37 42 l-29 42 -3 -42 c-2 -23 -6 -42 -10
-42 -6 0 -7 17 -2 95 1 17 7 13 35 -20 l35 -40 0 38z m326 -59 c-6 -15 -56
-20 -56 -6 0 5 10 8 23 8 19 -1 23 5 27 49 l4 50 4 -44 c2 -24 1 -50 -2 -57z
m216 79 c35 -31 10 -93 -38 -93 -45 0 -67 47 -44 91 13 24 57 25 82 2z m206
-12 c2 -13 -2 -27 -9 -32 -10 -6 -10 -11 1 -23 7 -9 10 -19 7 -22 -3 -3 -12 3
-19 15 -17 27 -36 27 -40 -1 -2 -13 -6 3 -9 35 l-4 58 35 -3 c28 -2 36 -8 38
-27z m212 19 c11 -7 6 -8 -16 -4 -51 10 -83 -36 -48 -70 17 -18 24 -19 48 -10
23 9 20 24 -4 24 -11 0 -20 5 -20 10 0 6 11 10 25 10 20 0 25 -5 25 -24 0 -37
-55 -50 -84 -20 -48 47 17 121 74 84z m173 3 c-25 -3 -33 -9 -33 -24 0 -14 8
-19 33 -21 l32 -1 -32 -4 c-24 -3 -33 -9 -33 -23 0 -14 9 -20 33 -23 31 -4 31
-4 -5 -5 l-38 -2 0 55 0 55 38 -2 c36 -1 36 -1 5 -5z m325 -96 c25 -4 24 -4
-5 -6 l-33 -1 2 58 2 57 3 -52 c4 -47 6 -52 31 -56z m185 96 c-25 -3 -33 -9
-33 -24 0 -14 8 -19 33 -21 l32 -1 -32 -4 c-24 -3 -33 -9 -33 -23 0 -14 9 -20
33 -23 31 -4 31 -4 -5 -5 l-38 -2 0 55 0 55 38 -2 c36 -1 36 -1 5 -5z m217 -1
c0 -4 -11 -23 -25 -42 -32 -43 -31 -48 3 -53 19 -3 14 -4 -16 -6 -47 -1 -47 0
-6 56 13 17 24 34 24 37 0 2 -15 7 -32 9 -29 3 -27 4 10 5 23 1 42 -2 42 -6z
m205 -2 c4 -7 -2 -9 -19 -4 -32 8 -56 -10 -56 -41 0 -31 24 -49 56 -41 17 5
23 3 19 -4 -8 -13 -41 -13 -66 0 -25 14 -26 75 -1 89 22 14 59 14 67 1z m195
-36 c23 -53 26 -74 8 -56 -16 16 -65 15 -71 0 -2 -7 -7 -10 -11 -7 -8 8 34
109 46 109 5 0 18 -21 28 -46z m210 9 c0 20 5 37 10 37 6 0 10 -25 10 -55 0
-30 -4 -55 -9 -55 -4 0 -21 19 -37 42 l-29 42 -6 -45 c-4 -32 -7 -37 -9 -16
-9 88 -3 96 35 52 l35 -40 0 38z m228 25 c17 -17 15 -73 -2 -87 -25 -21 -69
-9 -84 22 -12 24 -11 31 2 53 18 26 63 33 84 12z m-2970 -512 c92 -48 124
-138 142 -391 17 -233 -6 -481 -53 -571 -65 -126 -263 -137 -333 -18 -38 65
-53 132 -66 300 -13 170 0 404 27 509 21 78 61 143 105 166 42 23 139 25 178
5z"/>
<path d="M822 3518 c-29 -29 -3 -84 35 -76 25 5 40 52 23 72 -15 19 -41 21
-58 4z"/>
<path d="M1382 3500 c-7 -19 -6 -26 5 -28 21 -5 25 2 14 29 l-9 24 -10 -25z"/>
<path d="M2106 3514 c-9 -8 -16 -22 -16 -29 0 -17 27 -45 44 -45 19 0 36 22
36 45 0 41 -36 58 -64 29z"/>
<path d="M2320 3511 c0 -16 6 -21 26 -21 33 0 30 33 -4 38 -17 3 -22 -2 -22
-17z"/>
<path d="M3852 3500 c-7 -19 -6 -26 5 -28 22 -5 27 5 16 30 l-11 23 -10 -25z"/>
<path d="M4262 3518 c-29 -29 -3 -84 35 -76 25 5 40 52 23 72 -15 19 -41 21
-58 4z"/>
</g>
</svg>
