<?xml version="1.0" standalone="no"?>
<!DOCTYPE svg PUBLIC "-//W3C//DTD SVG 20010904//EN"
 "http://www.w3.org/TR/2001/REC-SVG-20010904/DTD/svg10.dtd">
<svg version="1.0" xmlns="http://www.w3.org/2000/svg"
 width="500.000000pt" height="500.000000pt" viewBox="0 0 500.000000 500.000000"
 preserveAspectRatio="xMidYMid meet">

<g transform="translate(0.000000,500.000000) scale(0.100000,-0.100000)"
fill="#000000" stroke="none">
<path d="M2434 3773 c-3 -10 -10 -29 -14 -43 -21 -65 -21 -67 -6 -47 14 18 61
23 71 7 3 -5 10 -10 15 -10 6 0 -2 25 -17 55 -29 58 -40 66 -49 38z m36 -50
c0 -7 -9 -13 -21 -13 -15 0 -19 4 -15 16 3 9 6 23 6 32 1 15 3 14 15 -2 8 -11
15 -26 15 -33z"/>
<path d="M2636 3768 c-3 -13 -5 -39 -5 -58 l1 -35 8 33 c11 48 16 48 40 3 24
-47 40 -53 40 -13 0 15 3 37 6 50 4 12 2 22 -4 22 -6 0 -12 -17 -14 -37 l-3
-38 -28 48 c-16 26 -30 47 -32 47 -1 0 -5 -10 -9 -22z"/>
<path d="M2250 3757 c0 -23 23 -107 29 -107 9 0 -10 95 -22 106 -4 4 -7 5 -7
1z"/>
<path d="M2068 3699 c-10 -5 -18 -18 -18 -29 0 -15 8 -19 38 -22 46 -4 51 -30
7 -38 -18 -3 -25 -8 -18 -13 6 -4 23 -3 38 3 20 7 26 16 23 33 -2 18 -10 23
-41 25 -41 4 -47 25 -9 30 12 2 22 8 22 13 0 12 -20 11 -42 -2z"/>
<path d="M3045 3641 c-22 -50 -31 -57 -50 -41 -9 7 -15 8 -15 2 0 -10 23 -22
41 -22 11 0 51 78 47 92 -2 6 -12 -8 -23 -31z"/>
<path d="M1852 3598 c-17 -17 -15 -64 4 -82 39 -40 105 4 85 56 -14 37 -64 51
-89 26z m59 -8 c22 -13 25 -52 4 -70 -34 -28 -84 30 -55 65 15 18 25 19 51 5z"/>
<path d="M3174 3559 l-27 -43 23 -18 c13 -10 25 -16 28 -13 3 3 -3 11 -13 19
-18 13 -18 15 4 51 31 53 18 56 -15 4z"/>
<path d="M1651 3475 c-229 -201 -375 -459 -426 -752 -20 -112 -19 -336 0 -449
33 -185 111 -371 223 -529 60 -84 179 -212 188 -202 4 3 -19 35 -51 69 -214
231 -331 489 -354 782 -28 369 97 726 346 982 43 44 101 99 128 122 28 23 43
41 35 42 -9 0 -49 -29 -89 -65z"/>
<path d="M3307 3503 c-4 -3 31 -42 77 -87 195 -190 325 -434 372 -694 20 -114
19 -331 -1 -447 -42 -238 -157 -464 -334 -657 -33 -36 -47 -58 -38 -58 22 0
152 155 219 261 63 100 126 252 159 381 29 117 38 386 15 514 -41 238 -149
464 -308 645 -62 70 -153 150 -161 142z"/>
<path d="M2518 3153 l-3 -268 -70 -6 c-66 -5 -67 -6 -17 -7 l52 -2 0 -264 c0
-214 3 -272 16 -307 16 -46 13 -101 -7 -125 -13 -15 -85 -19 -93 -5 -3 5 5 16
18 25 33 21 41 52 22 81 -19 29 -66 34 -90 10 -60 -61 4 -145 110 -145 l52 0
-6 -280 c-3 -182 -1 -280 5 -280 6 0 12 107 16 287 l5 286 33 25 c65 51 69 73
69 400 l0 292 37 0 c69 0 27 9 -50 11 l-77 2 0 268 c0 170 -4 269 -10 269 -6
0 -11 -101 -12 -267z"/>
<path d="M1707 2886 c-186 -67 -269 -313 -172 -506 96 -189 325 -228 461 -78
108 120 125 321 39 458 -71 112 -213 167 -328 126z m156 -26 c51 -41 62 -95
62 -315 0 -185 -2 -204 -22 -248 -46 -99 -169 -102 -218 -6 -38 73 -44 372
-10 486 20 68 61 103 119 103 28 0 52 -7 69 -20z"/>
<path d="M2978 2873 l42 -4 0 -315 0 -314 -40 0 c-22 0 -40 -4 -40 -10 0 -6
100 -10 280 -10 l280 0 0 109 c0 118 -14 156 -23 64 -6 -60 -25 -93 -71 -127
-23 -17 -45 -22 -132 -24 l-104 -4 0 316 0 315 43 4 c23 2 -30 4 -118 4 -88 0
-141 -2 -117 -4z"/>
<path d="M1710 1510 c-31 -39 -32 -42 -14 -55 30 -23 52 -27 74 -15 32 17 36
57 9 86 -12 13 -26 24 -30 24 -4 0 -22 -18 -39 -40z m65 -20 c0 -30 -4 -35
-25 -38 -14 -1 -31 2 -39 7 -11 7 -10 15 9 40 29 42 55 38 55 -9z"/>
<path d="M3236 1529 l-26 -20 32 -40 c17 -21 36 -39 41 -39 6 0 3 8 -6 18 -22
24 -13 31 31 26 35 -4 35 -3 11 6 -19 8 -25 16 -22 30 3 11 -2 22 -15 29 -16
8 -25 6 -46 -10z m50 -10 c3 -6 -1 -18 -9 -27 -13 -13 -19 -13 -32 -2 -12 10
-13 16 -4 26 14 17 35 18 45 3z"/>
<path d="M3083 1422 l-32 -17 26 -45 c14 -25 27 -46 28 -48 2 -2 18 6 36 17
19 12 27 21 19 21 -9 0 -21 -5 -27 -11 -6 -6 -16 -8 -22 -5 -18 11 -13 34 9
41 11 3 20 11 20 17 0 6 -11 3 -24 -5 -20 -14 -26 -14 -35 -3 -9 11 -5 18 16
35 34 25 29 26 -14 3z"/>
<path d="M1893 1390 c-29 -50 -29 -52 7 -73 17 -10 30 -14 30 -9 0 5 -11 14
-25 20 -16 7 -23 17 -19 27 7 17 30 20 39 5 3 -5 12 -10 18 -10 7 0 1 9 -13
20 -19 14 -22 22 -14 30 9 9 17 9 34 0 12 -6 24 -9 27 -7 4 5 -49 37 -59 37
-2 0 -13 -18 -25 -40z"/>
<path d="M2081 1293 c-1 -76 10 -80 58 -22 41 50 35 63 -7 14 l-31 -35 -6 38
c-11 67 -13 68 -14 5z"/>
<path d="M2892 1340 c-22 -9 -22 -10 -6 -52 20 -52 38 -75 29 -37 -5 21 -2 27
14 32 27 7 37 33 21 52 -14 17 -25 18 -58 5z m48 -25 c0 -21 -30 -31 -41 -14
-14 23 -11 29 16 29 16 0 25 -6 25 -15z"/>
<path d="M2276 1239 c-4 -28 -6 -53 -4 -54 2 -1 18 -6 37 -10 23 -5 31 -4 27
4 -4 6 -16 11 -26 11 -23 0 -31 12 -20 29 5 9 17 12 36 7 21 -5 25 -4 14 4 -8
5 -23 10 -34 10 -12 0 -16 5 -12 16 3 9 6 17 6 18 0 1 15 1 33 -1 26 -3 28 -1
12 6 -11 5 -30 10 -41 10 -18 1 -22 -6 -28 -50z"/>
<path d="M2682 1274 c-44 -30 -18 -94 38 -94 47 0 68 61 32 93 -23 21 -41 21
-70 1z m65 -23 c17 -35 0 -63 -35 -59 -21 2 -28 9 -30 31 -7 55 41 75 65 28z"/>
<path d="M2482 1218 l-2 -58 33 1 c29 2 30 2 5 6 -25 4 -27 9 -31 56 l-3 52
-2 -57z"/>
</g>
</svg>
